<svg width="92" height="47" viewBox="0 0 92 47" fill="none" xmlns="http://www.w3.org/2000/svg">
<path fill-rule="evenodd" clip-rule="evenodd" d="M64.7413 21.3413C63.6851 20.0602 62.3165 19.073 60.7676 18.4748C59.8899 18.1452 58.9871 17.8865 58.068 17.7013C52.9265 16.6093 55.9143 11.8166 58.8718 13.6366L59.4026 14.031C61.1034 14.1566 62.8101 14.1819 64.5138 14.1068C64.2664 12.837 63.5521 11.706 62.5118 10.937C60.0851 8.7378 54.3218 8.26764 51.5311 12.12C50.9961 12.9462 50.6518 13.8812 50.5232 14.8572C50.3947 15.8331 50.4851 16.8254 50.788 17.762C51.4095 19.0993 52.4839 20.1738 53.8213 20.7953C54.0061 20.9187 54.1986 21.0301 54.3976 21.129C55.9143 21.8266 58.4623 22.6456 59.3571 23.1006C63.1488 25.2695 57.5826 30.4261 54.5796 24.7235H49.6505V1.6853H44.964V10.0421H40.687C40.687 13.3636 40.8538 17.1553 40.687 20.4313C40.323 27.4535 30.5556 27.8023 30.6011 20.5375C30.6011 17.034 30.6011 13.5305 30.6011 10.0421H25.8843L25.7781 18.1866C25.5251 16.5855 24.8847 15.0704 23.9126 13.7731C23.0489 12.5174 21.9431 11.4466 20.6602 10.6238C19.3773 9.80089 17.943 9.24242 16.4414 8.98109C14.9398 8.71976 13.4012 8.76084 11.9157 9.1019C10.4302 9.44297 9.02769 10.0772 7.79048 10.9673C7.35064 11.301 7.03214 11.574 6.59231 11.9228C5.80854 12.5245 5.11407 13.2343 4.52964 14.031C4.21676 14.4425 3.93779 14.8787 3.69548 15.3353C3.17547 16.333 2.80255 17.4007 2.58831 18.5051C2.45395 19.6936 2.38307 20.8884 2.37598 22.0845V38.874H7.16864V29.2886C10.6115 31.1238 14.4183 32.7315 18.9835 30.8053C21.5137 29.7205 23.5735 27.7682 24.7923 25.2998C25.2662 24.3748 25.5742 23.3738 25.7023 22.3423H25.8843C25.8843 27.226 29.6305 29.9256 34.135 30.3958C37.0109 30.8458 39.9519 30.2252 42.4008 28.6516C43.5916 27.8504 44.4908 26.6851 44.964 25.3301V30.8356H49.6505V24.8903L49.8931 25.5576C49.9458 25.8003 50.0167 26.0386 50.1055 26.2705C50.5124 27.56 51.2193 28.7347 52.1681 29.6981C52.8693 30.3889 53.7014 30.9326 54.6155 31.2972C55.5297 31.6618 56.5076 31.8401 57.4916 31.8215C59.514 31.9795 61.5206 31.3613 63.1033 30.0925C63.7966 29.5569 64.3919 28.9052 64.8626 28.1663C65.4011 27.3296 65.7385 26.3797 65.8485 25.3908L66.713 26.7861C67.0209 27.2498 67.3551 27.6954 67.714 28.1208C68.463 28.9152 69.3209 29.5995 70.262 30.1531C74.4783 32.6556 80.9848 32.2006 84.367 29.046C84.9778 28.5299 85.532 27.9503 86.0201 27.317C86.2021 27.0743 86.3386 26.8771 86.5206 26.6041C87.1824 25.5843 87.6407 24.4461 87.8705 23.2523H82.6683C82.4711 23.5556 82.3346 23.8438 82.1223 24.132L81.7886 24.5111C81.0823 25.3062 80.2074 25.9335 79.2277 26.3474C78.2481 26.7612 77.1884 26.951 76.1259 26.9031C75.0635 26.8551 74.0252 26.5706 73.0868 26.0701C72.1484 25.5697 71.3336 24.8661 70.7018 24.0106C70.4964 23.7356 70.3186 23.4409 70.171 23.131C69.8811 22.3797 69.6627 21.6028 69.5188 20.8105H88.0676C88.0141 19.1689 87.6647 17.5505 87.0363 16.033C86.3659 14.3363 85.2726 12.8393 83.8603 11.6845C82.448 10.5297 80.7637 9.7555 78.9676 9.43547C76.462 9.00331 73.8843 9.3308 71.5663 10.3758C69.4343 11.266 67.6359 12.8035 66.4248 14.771C65.2138 16.7386 64.6515 19.0369 64.8171 21.3413H64.7413ZM9.41331 19.6123L3.95331 19.8701L9.80764 20.2341L11.1423 16.3515L13.8875 27.0591L16.4355 20.5375L24.5951 19.9763L16.0866 19.8701L14.0391 24.6628L11.294 14.1675L9.41331 19.6123ZM71.0506 16.579H81.8493C79.362 12.848 73.2043 12.7266 71.0506 16.579Z" fill="#5B5B5B"/>
<path d="M71.2637 40.5273H73.0382V42.2412H71.2637V40.5273Z" fill="#5B5B5B"/>
<path d="M74.692 35.6741H76.057V36.6296C76.2724 36.2747 76.5784 35.9837 76.9436 35.7865C77.3088 35.5892 77.72 35.4928 78.1348 35.5072C78.4429 35.4653 78.7565 35.4931 79.0524 35.5885C79.3483 35.6839 79.6191 35.8445 79.8447 36.0585C80.0703 36.2724 80.245 36.5343 80.3559 36.8248C80.4668 37.1152 80.5112 37.4269 80.4856 37.7367V42.2867H78.969V38.1159C78.969 37.0846 78.5292 36.5992 77.6798 36.5992C77.4658 36.6107 77.2563 36.6649 77.0636 36.7585C76.8709 36.8521 76.6988 36.9833 76.5575 37.1444C76.4162 37.3055 76.3085 37.4932 76.2408 37.6965C76.1731 37.8998 76.1467 38.1146 76.1632 38.3282V42.2109H74.6465L74.692 35.6741Z" fill="#5B5B5B"/>
<path d="M88.0691 41.9075C88.0691 43.8792 86.9164 44.8498 84.8386 44.8498C83.5191 44.8498 82.0328 44.3493 81.8963 42.8023H83.413C83.595 43.6365 84.2471 43.773 84.9296 43.773C85.1524 43.7901 85.3761 43.7577 85.5849 43.6782C85.7937 43.5988 85.9824 43.4742 86.1374 43.3133C86.2925 43.1525 86.4101 42.9594 86.4818 42.7478C86.5536 42.5363 86.5777 42.3115 86.5525 42.0895V41.0885C86.3558 41.4384 86.0695 41.7296 85.7229 41.9322C85.3764 42.1348 84.9822 42.2415 84.5808 42.2412C82.4878 42.2412 81.6233 40.7245 81.6233 38.7832C81.5875 38.3637 81.6394 37.9413 81.7758 37.543C81.9121 37.1447 82.1298 36.7791 82.4152 36.4696C82.7005 36.16 83.0471 35.9132 83.433 35.7449C83.8189 35.5766 84.2356 35.4905 84.6566 35.492C85.0411 35.48 85.4214 35.5741 85.7558 35.7641C86.0903 35.954 86.3659 36.2325 86.5525 36.5688V35.674H88.0691V41.9075ZM86.5525 38.8742C86.5525 37.7367 86.052 36.6902 84.7931 36.6902C83.5343 36.6902 83.0641 37.8883 83.0641 38.9803C83.0641 40.0723 83.5798 41.1643 84.7931 41.1643C86.0065 41.1643 86.5525 39.9358 86.5525 38.8135V38.8742Z" fill="#5B5B5B"/>
</svg>
