<svg width="96" height="96" viewBox="0 0 96 96" fill="none" xmlns="http://www.w3.org/2000/svg">
<rect width="96" height="96" rx="8" fill="#7839EE"/>
<path d="M42.001 67.9998H54.001C64.001 67.9998 68.001 63.9998 68.001 53.9998V41.9998C68.001 31.9998 64.001 27.9998 54.001 27.9998H42.001C32.001 27.9998 28.001 31.9998 28.001 41.9998V53.9998C28.001 63.9998 32.001 67.9998 42.001 67.9998Z" stroke="white" stroke-width="2.5" stroke-linecap="round" stroke-linejoin="round"/>
<path d="M38.001 40.4998C40.001 42.4998 43.261 42.4998 45.281 40.4998" stroke="white" stroke-width="2.5" stroke-miterlimit="10" stroke-linecap="round" stroke-linejoin="round"/>
<path d="M50.7188 40.4998C52.7188 42.4998 55.9788 42.4998 57.9988 40.4998" stroke="white" stroke-width="2.5" stroke-miterlimit="10" stroke-linecap="round" stroke-linejoin="round"/>
<path d="M40.8 50.0002H55.2C56.2 50.0002 57 50.8002 57 51.8002C57 56.7802 52.98 60.8002 48 60.8002C43.02 60.8002 39 56.7802 39 51.8002C39 50.8002 39.8 50.0002 40.8 50.0002Z" stroke="white" stroke-width="2.5" stroke-miterlimit="10" stroke-linecap="round" stroke-linejoin="round"/>
</svg>
