<svg width="55" height="51" viewBox="0 0 55 51" fill="none" xmlns="http://www.w3.org/2000/svg">
<rect width="54.7465" height="50.9032" rx="5.12442" fill="#12B76A"/>
<path d="M22.273 34.0516C23.773 34.9516 25.573 35.4516 27.373 35.4516C32.873 35.4516 37.373 30.9516 37.373 25.4516C37.373 19.9516 32.873 15.4516 27.373 15.4516C21.873 15.4516 17.373 19.9516 17.373 25.4516C17.373 27.2516 17.873 28.9516 18.673 30.4516L17.8135 33.7576C17.6188 34.5065 18.312 35.1833 19.056 34.9707L22.273 34.0516Z" stroke="white" stroke-width="2" stroke-miterlimit="10" stroke-linecap="round" stroke-linejoin="round"/>
<path d="M31.873 28.3001C31.873 28.4621 31.837 28.6286 31.7604 28.7906C31.6838 28.9526 31.5846 29.1056 31.4539 29.2496C31.2331 29.4926 30.9897 29.6681 30.7148 29.7806C30.4444 29.8931 30.1515 29.9516 29.836 29.9516C29.3763 29.9516 28.8851 29.8436 28.3668 29.6231C27.8485 29.4026 27.3302 29.1056 26.8165 28.7321C26.2982 28.3541 25.8069 27.9356 25.3382 27.4721C24.874 27.0041 24.4549 26.5136 24.0809 26.0006C23.7113 25.4876 23.4139 24.9746 23.1975 24.4661C22.9812 23.9531 22.873 23.4626 22.873 22.9946C22.873 22.6886 22.9271 22.3961 23.0353 22.1261C23.1435 21.8516 23.3147 21.5996 23.5536 21.3746C23.842 21.0911 24.1575 20.9516 24.491 20.9516C24.6172 20.9516 24.7434 20.9786 24.856 21.0326C24.9732 21.0866 25.0769 21.1676 25.158 21.2846L26.2035 22.7561C26.2847 22.8686 26.3433 22.9721 26.3838 23.0711C26.4244 23.1656 26.4469 23.2601 26.4469 23.3456C26.4469 23.4536 26.4154 23.5616 26.3523 23.6651C26.2937 23.7686 26.208 23.8766 26.0999 23.9846L25.7574 24.3401C25.7078 24.3896 25.6853 24.4481 25.6853 24.5201C25.6853 24.5561 25.6898 24.5876 25.6988 24.6236C25.7123 24.6596 25.7258 24.6866 25.7348 24.7136C25.816 24.8621 25.9557 25.0556 26.154 25.2896C26.3568 25.5236 26.5731 25.7621 26.8074 26.0006C27.0508 26.2391 27.2852 26.4596 27.524 26.6621C27.7584 26.8601 27.9522 26.9951 28.1054 27.0761C28.1279 27.0851 28.155 27.0986 28.1865 27.1121C28.2226 27.1256 28.2586 27.1301 28.2992 27.1301C28.3758 27.1301 28.4344 27.1031 28.484 27.0536L28.8265 26.7161C28.9391 26.6036 29.0473 26.5181 29.151 26.4641C29.2546 26.4011 29.3583 26.3696 29.4709 26.3696C29.5566 26.3696 29.6467 26.3876 29.7459 26.4281C29.845 26.4686 29.9487 26.5271 30.0613 26.6036L31.5531 27.6611C31.6702 27.7421 31.7514 27.8366 31.8009 27.9491C31.846 28.0616 31.873 28.1741 31.873 28.3001Z" stroke="white" stroke-width="1.5" stroke-miterlimit="10"/>
</svg>
